<?xml version="1.0" encoding="utf-8"?>
<!DOCTYPE svg PUBLIC "-//W3C//DTD SVG 1.1//EN" "http://www.w3.org/Graphics/SVG/1.1/DTD/svg11.dtd">
<svg style="width:308px;height:308px;" version="1.1" id="图形" xmlns="http://www.w3.org/2000/svg" xmlns:xlink="http://www.w3.org/1999/xlink" x="0px" y="0px" width="1024px" height="1024px" viewBox="0 0 1024 1024" enable-background="new 0 0 1024 1024" xml:space="preserve">
  <path class="svgpath" data-index="path_0" d="M994.112 858.368l-224.96-224.96C808.32 569.984 832 496 832 416 832 186.24 645.76 0 416 0S0 186.24 0 416 186.24 832 416 832c80 0 153.984-23.68 217.344-62.784l225.024 224.96c37.504 37.504 98.24 37.504 135.744 0S1031.616 895.872 994.112 858.368zM416 704C256.96 704 128 575.04 128 416S256.96 128 416 128 704 256.96 704 416 575.04 704 416 704z" />

</svg>
